<?xml version="1.0" encoding="UTF-8" standalone="no"?>
<!DOCTYPE svg PUBLIC "-//W3C//DTD SVG 1.1//EN"
 "http://www.w3.org/Graphics/SVG/1.1/DTD/svg11.dtd">
<!-- Generated by graphviz version 14.1.5 (0)
 -->
<!-- Title: ProtocolLoop Pages: 1 -->
<svg width="879pt" height="174pt"
 viewBox="6.00 6.00 873.00 168.00" xmlns="http://www.w3.org/2000/svg" xmlns:xlink="http://www.w3.org/1999/xlink">
<g id="graph0" class="graph" transform="scale(1 1) rotate(0) translate(9.76 163.78)">
<title>ProtocolLoop</title>
<polygon fill="white" stroke="none" points="-4,4 -4,-158.02 863.15,-158.02 863.15,4 -4,4"/>
<!-- danger -->
<g id="node1" class="node">
<title>danger</title>
<path fill="#efe5f0" stroke="#8f8a80" d="M112.53,-154.02C112.53,-154.02 12,-154.02 12,-154.02 6,-154.02 0,-148.02 0,-142.02 0,-142.02 0,-105 0,-105 0,-99 6,-93 12,-93 12,-93 112.53,-93 112.53,-93 118.53,-93 124.53,-99 124.53,-105 124.53,-105 124.53,-142.02 124.53,-142.02 124.53,-148.02 118.53,-154.02 112.53,-154.02"/>
<text xml:space="preserve" text-anchor="middle" x="62.26" y="-135.91" font-family="DejaVu Sans" font-size="13.00">вонючий газ</text>
<text xml:space="preserve" text-anchor="middle" x="62.26" y="-119.41" font-family="DejaVu Sans" font-size="13.00">агент детектит</text>
<text xml:space="preserve" text-anchor="middle" x="62.26" y="-102.91" font-family="DejaVu Sans" font-size="13.00">X0 &#45;&gt; X1</text>
</g>
<!-- vote -->
<g id="node2" class="node">
<title>vote</title>
<path fill="#eef2f6" stroke="#8f8a80" d="M260.56,-145.77C260.56,-145.77 176.53,-145.77 176.53,-145.77 170.53,-145.77 164.53,-139.77 164.53,-133.77 164.53,-133.77 164.53,-113.25 164.53,-113.25 164.53,-107.25 170.53,-101.25 176.53,-101.25 176.53,-101.25 260.56,-101.25 260.56,-101.25 266.56,-101.25 272.56,-107.25 272.56,-113.25 272.56,-113.25 272.56,-133.77 272.56,-133.77 272.56,-139.77 266.56,-145.77 260.56,-145.77"/>
<text xml:space="preserve" text-anchor="middle" x="218.54" y="-127.66" font-family="DejaVu Sans" font-size="13.00">голос агента</text>
<text xml:space="preserve" text-anchor="middle" x="218.54" y="-111.16" font-family="DejaVu Sans" font-size="13.00">X0 или X1</text>
</g>
<!-- danger&#45;&gt;vote -->
<g id="edge1" class="edge">
<title>danger&#45;&gt;vote</title>
<path fill="none" stroke="#555555" stroke-width="1.5" d="M124.68,-123.51C134.41,-123.51 144.49,-123.51 154.26,-123.51"/>
<polygon fill="#555555" stroke="#555555" stroke-width="1.5" points="154.04,-126.31 162.04,-123.51 154.04,-120.71 154.04,-126.31"/>
</g>
<!-- crn -->
<g id="node3" class="node">
<title>crn</title>
<path fill="#f7eee6" stroke="#8f8a80" d="M527.09,-154.02C527.09,-154.02 324.56,-154.02 324.56,-154.02 318.56,-154.02 312.56,-148.02 312.56,-142.02 312.56,-142.02 312.56,-105 312.56,-105 312.56,-99 318.56,-93 324.56,-93 324.56,-93 527.09,-93 527.09,-93 533.09,-93 539.09,-99 539.09,-105 539.09,-105 539.09,-142.02 539.09,-142.02 539.09,-148.02 533.09,-154.02 527.09,-154.02"/>
<text xml:space="preserve" text-anchor="middle" x="425.82" y="-135.91" font-family="DejaVu Sans" font-size="13.00">локальный CRN</text>
<text xml:space="preserve" text-anchor="middle" x="425.82" y="-119.41" font-family="DejaVu Sans" font-size="13.00">двое переубеждают третьего</text>
<text xml:space="preserve" text-anchor="middle" x="425.82" y="-102.91" font-family="DejaVu Sans" font-size="13.00">одиночное X1 забывается</text>
</g>
<!-- vote&#45;&gt;crn -->
<g id="edge2" class="edge">
<title>vote&#45;&gt;crn</title>
<path fill="none" stroke="#555555" stroke-width="1.5" d="M272.94,-112.83C282.12,-112.3 291.99,-111.93 302.12,-111.72"/>
<polygon fill="#555555" stroke="#555555" stroke-width="1.5" points="302.11,-114.52 310.07,-111.59 302.02,-108.92 302.11,-114.52"/>
</g>
<!-- timer -->
<g id="node4" class="node">
<title>timer</title>
<path fill="#f6f1da" stroke="#8f8a80" d="M488.84,-61.02C488.84,-61.02 362.81,-61.02 362.81,-61.02 356.81,-61.02 350.81,-55.02 350.81,-49.02 350.81,-49.02 350.81,-12 350.81,-12 350.81,-6 356.81,0 362.81,0 362.81,0 488.84,0 488.84,0 494.84,0 500.84,-6 500.84,-12 500.84,-12 500.84,-49.02 500.84,-49.02 500.84,-55.02 494.84,-61.02 488.84,-61.02"/>
<text xml:space="preserve" text-anchor="middle" x="425.82" y="-42.91" font-family="DejaVu Sans" font-size="13.00">таймер агента</text>
<text xml:space="preserve" text-anchor="middle" x="425.82" y="-26.41" font-family="DejaVu Sans" font-size="13.00">растет только в X1</text>
<text xml:space="preserve" text-anchor="middle" x="425.82" y="-9.91" font-family="DejaVu Sans" font-size="13.00">сбрасывается в X0</text>
</g>
<!-- vote&#45;&gt;timer -->
<g id="edge4" class="edge">
<title>vote&#45;&gt;timer</title>
<path fill="none" stroke="#555555" stroke-width="1.5" d="M262.73,-100.79C278.31,-92.84 296.1,-84.03 312.56,-76.51 321.78,-72.3 331.5,-68.05 341.21,-63.92"/>
<polygon fill="#555555" stroke="#555555" stroke-width="1.5" points="342.12,-66.57 348.4,-60.88 339.94,-61.41 342.12,-66.57"/>
</g>
<!-- crn&#45;&gt;vote -->
<g id="edge3" class="edge">
<title>crn&#45;&gt;vote</title>
<path fill="none" stroke="#555555" stroke-width="1.5" d="M312.34,-135.46C302.28,-135.36 292.35,-135.1 282.94,-134.69"/>
<polygon fill="#555555" stroke="#555555" stroke-width="1.5" points="283.34,-131.91 275.21,-134.3 283.06,-137.5 283.34,-131.91"/>
</g>
<!-- commit -->
<g id="node5" class="node">
<title>commit</title>
<path fill="#edf3e8" stroke="#8f8a80" d="M725.37,-52.77C725.37,-52.77 591.09,-52.77 591.09,-52.77 585.09,-52.77 579.09,-46.77 579.09,-40.77 579.09,-40.77 579.09,-20.25 579.09,-20.25 579.09,-14.25 585.09,-8.25 591.09,-8.25 591.09,-8.25 725.37,-8.25 725.37,-8.25 731.37,-8.25 737.37,-14.25 737.37,-20.25 737.37,-20.25 737.37,-40.77 737.37,-40.77 737.37,-46.77 731.37,-52.77 725.37,-52.77"/>
<text xml:space="preserve" text-anchor="middle" x="658.23" y="-34.66" font-family="DejaVu Sans" font-size="13.00">commit</text>
<text xml:space="preserve" text-anchor="middle" x="658.23" y="-18.16" font-family="DejaVu Sans" font-size="13.00">если tau &gt;= T_leave</text>
</g>
<!-- timer&#45;&gt;commit -->
<g id="edge5" class="edge">
<title>timer&#45;&gt;commit</title>
<path fill="none" stroke="#555555" stroke-width="1.5" d="M501.31,-30.51C522.75,-30.51 546.34,-30.51 568.54,-30.51"/>
<polygon fill="#555555" stroke="#555555" stroke-width="1.5" points="568.36,-33.31 576.36,-30.51 568.36,-27.71 568.36,-33.31"/>
</g>
<!-- action -->
<g id="node6" class="node">
<title>action</title>
<path fill="#e7f1ea" stroke="#8f8a80" d="M847.15,-52.77C847.15,-52.77 789.37,-52.77 789.37,-52.77 783.37,-52.77 777.37,-46.77 777.37,-40.77 777.37,-40.77 777.37,-20.25 777.37,-20.25 777.37,-14.25 783.37,-8.25 789.37,-8.25 789.37,-8.25 847.15,-8.25 847.15,-8.25 853.15,-8.25 859.15,-14.25 859.15,-20.25 859.15,-20.25 859.15,-40.77 859.15,-40.77 859.15,-46.77 853.15,-52.77 847.15,-52.77"/>
<text xml:space="preserve" text-anchor="middle" x="818.26" y="-34.66" font-family="DejaVu Sans" font-size="13.00">действие</text>
<text xml:space="preserve" text-anchor="middle" x="818.26" y="-18.16" font-family="DejaVu Sans" font-size="13.00">покинуть</text>
</g>
<!-- commit&#45;&gt;action -->
<g id="edge6" class="edge">
<title>commit&#45;&gt;action</title>
<path fill="none" stroke="#555555" stroke-width="1.5" d="M737.78,-30.51C747.69,-30.51 757.6,-30.51 766.91,-30.51"/>
<polygon fill="#555555" stroke="#555555" stroke-width="1.5" points="766.84,-33.31 774.84,-30.51 766.84,-27.71 766.84,-33.31"/>
</g>
</g>
</svg>
